<svg fill="none" height="19" viewBox="0 0 22 19" width="22" xmlns="http://www.w3.org/2000/svg" xmlns:xlink="http://www.w3.org/1999/xlink"><linearGradient id="a" gradientUnits="userSpaceOnUse" x1="22.0543" x2=".777344" y1="9.12509" y2="9.12509"><stop offset="0" stop-color="#5f4efc"/><stop offset="1" stop-color="#5095ff"/></linearGradient><path d="m17.485 12.5481-2.78-2.99248c-.3759-.40462-.3526-1.03735.052-1.41325s1.0373-.35262 1.4132.05201l5.6333 6.06372-7.0342 3.6756c-.4895.2558-1.0937.0663-1.3495-.4232-.2557-.4894-.0663-1.0936.4232-1.3494l3.1547-1.6484c-4.6181-.4302-8.29786-1.6855-11.00823-3.7982-2.92428-2.27949-4.62124-5.48023-5.201454-9.44469-.079975-.546463.298184-1.054293.844654-1.134269.54646-.079977 1.05429.298185 1.13426.844649.51744 3.53554 1.99431 6.24105 4.4521 8.15689 2.37044 1.84772 5.74287 3.03042 10.26597 3.41102z" fill="url(#a)" opacity=".9"/></svg>