<svg xmlns="http://www.w3.org/2000/svg" version="1.1" xmlns:xlink="http://www.w3.org/1999/xlink" xmlns:svgjs="http://svgjs.dev/svgjs" viewBox="0 0 800 800" opacity="0.1" width="800" height="800"><g stroke-width="0.5" stroke="hsla(261, 3%, 38%, 1.00)" fill="none"><rect width="66.66666666666667" height="53.333333333333336" x="0" y="0"></rect><rect width="66.66666666666667" height="53.333333333333336" x="66.66666666666667" y="0"></rect><rect width="66.66666666666667" height="53.333333333333336" x="133.33333333333334" y="0"></rect><rect width="66.66666666666667" height="53.333333333333336" x="200" y="0"></rect><rect width="66.66666666666667" height="53.333333333333336" x="266.6666666666667" y="0"></rect><rect width="66.66666666666667" height="53.333333333333336" x="333.33333333333337" y="0"></rect><rect width="66.66666666666667" height="53.333333333333336" x="400.00000000000006" y="0"></rect><rect width="66.66666666666667" height="53.333333333333336" x="466.66666666666674" y="0"></rect><rect width="66.66666666666667" height="53.333333333333336" x="533.3333333333334" y="0"></rect><rect width="66.66666666666667" height="53.333333333333336" x="600" y="0"></rect><rect width="66.66666666666667" height="53.333333333333336" x="666.6666666666666" y="0"></rect><rect width="66.66666666666667" height="53.333333333333336" x="733.3333333333333" y="0"></rect><rect width="66.66666666666667" height="53.333333333333336" x="799.9999999999999" y="0"></rect><rect width="66.66666666666667" height="53.333333333333336" x="0" y="53.333333333333336"></rect><rect width="66.66666666666667" height="53.333333333333336" x="66.66666666666667" y="53.333333333333336"></rect><rect width="66.66666666666667" height="53.333333333333336" x="133.33333333333334" y="53.333333333333336"></rect><rect width="66.66666666666667" height="53.333333333333336" x="200" y="53.333333333333336"></rect><rect width="66.66666666666667" height="53.333333333333336" x="266.6666666666667" y="53.333333333333336"></rect><rect width="66.66666666666667" height="53.333333333333336" x="333.33333333333337" y="53.333333333333336"></rect><rect width="66.66666666666667" height="53.333333333333336" x="400.00000000000006" y="53.333333333333336"></rect><rect width="66.66666666666667" height="53.333333333333336" x="466.66666666666674" y="53.333333333333336"></rect><rect width="66.66666666666667" height="53.333333333333336" x="533.3333333333334" y="53.333333333333336"></rect><rect width="66.66666666666667" height="53.333333333333336" x="600" y="53.333333333333336"></rect><rect width="66.66666666666667" height="53.333333333333336" x="666.6666666666666" y="53.333333333333336"></rect><rect width="66.66666666666667" height="53.333333333333336" x="733.3333333333333" y="53.333333333333336"></rect><rect width="66.66666666666667" height="53.333333333333336" x="799.9999999999999" y="53.333333333333336"></rect><rect width="66.66666666666667" height="53.333333333333336" x="0" y="106.66666666666667"></rect><rect width="66.66666666666667" height="53.333333333333336" x="66.66666666666667" y="106.66666666666667"></rect><rect width="66.66666666666667" height="53.333333333333336" x="133.33333333333334" y="106.66666666666667"></rect><rect width="66.66666666666667" height="53.333333333333336" x="200" y="106.66666666666667"></rect><rect width="66.66666666666667" height="53.333333333333336" x="266.6666666666667" y="106.66666666666667"></rect><rect width="66.66666666666667" height="53.333333333333336" x="333.33333333333337" y="106.66666666666667"></rect><rect width="66.66666666666667" height="53.333333333333336" x="400.00000000000006" y="106.66666666666667"></rect><rect width="66.66666666666667" height="53.333333333333336" x="466.66666666666674" y="106.66666666666667"></rect><rect width="66.66666666666667" height="53.333333333333336" x="533.3333333333334" y="106.66666666666667"></rect><rect width="66.66666666666667" height="53.333333333333336" x="600" y="106.66666666666667"></rect><rect width="66.66666666666667" height="53.333333333333336" x="666.6666666666666" y="106.66666666666667"></rect><rect width="66.66666666666667" height="53.333333333333336" x="733.3333333333333" y="106.66666666666667"></rect><rect width="66.66666666666667" height="53.333333333333336" x="799.9999999999999" y="106.66666666666667"></rect><rect width="66.66666666666667" height="53.333333333333336" x="0" y="160"></rect><rect width="66.66666666666667" height="53.333333333333336" x="66.66666666666667" y="160"></rect><rect width="66.66666666666667" height="53.333333333333336" x="133.33333333333334" y="160"></rect><rect width="66.66666666666667" height="53.333333333333336" x="200" y="160"></rect><rect width="66.66666666666667" height="53.333333333333336" x="266.6666666666667" y="160"></rect><rect width="66.66666666666667" height="53.333333333333336" x="333.33333333333337" y="160"></rect><rect width="66.66666666666667" height="53.333333333333336" x="400.00000000000006" y="160"></rect><rect width="66.66666666666667" height="53.333333333333336" x="466.66666666666674" y="160"></rect><rect width="66.66666666666667" height="53.333333333333336" x="533.3333333333334" y="160"></rect><rect width="66.66666666666667" height="53.333333333333336" x="600" y="160"></rect><rect width="66.66666666666667" height="53.333333333333336" x="666.6666666666666" y="160"></rect><rect width="66.66666666666667" height="53.333333333333336" x="733.3333333333333" y="160"></rect><rect width="66.66666666666667" height="53.333333333333336" x="799.9999999999999" y="160"></rect><rect width="66.66666666666667" height="53.333333333333336" x="0" y="213.33333333333334"></rect><rect width="66.66666666666667" height="53.333333333333336" x="66.66666666666667" y="213.33333333333334"></rect><rect width="66.66666666666667" height="53.333333333333336" x="133.33333333333334" y="213.33333333333334"></rect><rect width="66.66666666666667" height="53.333333333333336" x="200" y="213.33333333333334"></rect><rect width="66.66666666666667" height="53.333333333333336" x="266.6666666666667" y="213.33333333333334"></rect><rect width="66.66666666666667" height="53.333333333333336" x="333.33333333333337" y="213.33333333333334"></rect><rect width="66.66666666666667" height="53.333333333333336" x="400.00000000000006" y="213.33333333333334"></rect><rect width="66.66666666666667" height="53.333333333333336" x="466.66666666666674" y="213.33333333333334"></rect><rect width="66.66666666666667" height="53.333333333333336" x="533.3333333333334" y="213.33333333333334"></rect><rect width="66.66666666666667" height="53.333333333333336" x="600" y="213.33333333333334"></rect><rect width="66.66666666666667" height="53.333333333333336" x="666.6666666666666" y="213.33333333333334"></rect><rect width="66.66666666666667" height="53.333333333333336" x="733.3333333333333" y="213.33333333333334"></rect><rect width="66.66666666666667" height="53.333333333333336" x="799.9999999999999" y="213.33333333333334"></rect><rect width="66.66666666666667" height="53.333333333333336" x="0" y="266.6666666666667"></rect><rect width="66.66666666666667" height="53.333333333333336" x="66.66666666666667" y="266.6666666666667"></rect><rect width="66.66666666666667" height="53.333333333333336" x="133.33333333333334" y="266.6666666666667"></rect><rect width="66.66666666666667" height="53.333333333333336" x="200" y="266.6666666666667"></rect><rect width="66.66666666666667" height="53.333333333333336" x="266.6666666666667" y="266.6666666666667"></rect><rect width="66.66666666666667" height="53.333333333333336" x="333.33333333333337" y="266.6666666666667"></rect><rect width="66.66666666666667" height="53.333333333333336" x="400.00000000000006" y="266.6666666666667"></rect><rect width="66.66666666666667" height="53.333333333333336" x="466.66666666666674" y="266.6666666666667"></rect><rect width="66.66666666666667" height="53.333333333333336" x="533.3333333333334" y="266.6666666666667"></rect><rect width="66.66666666666667" height="53.333333333333336" x="600" y="266.6666666666667"></rect><rect width="66.66666666666667" height="53.333333333333336" x="666.6666666666666" y="266.6666666666667"></rect><rect width="66.66666666666667" height="53.333333333333336" x="733.3333333333333" y="266.6666666666667"></rect><rect width="66.66666666666667" height="53.333333333333336" x="799.9999999999999" y="266.6666666666667"></rect><rect width="66.66666666666667" height="53.333333333333336" x="0" y="320"></rect><rect width="66.66666666666667" height="53.333333333333336" x="66.66666666666667" y="320"></rect><rect width="66.66666666666667" height="53.333333333333336" x="133.33333333333334" y="320"></rect><rect width="66.66666666666667" height="53.333333333333336" x="200" y="320"></rect><rect width="66.66666666666667" height="53.333333333333336" x="266.6666666666667" y="320"></rect><rect width="66.66666666666667" height="53.333333333333336" x="333.33333333333337" y="320"></rect><rect width="66.66666666666667" height="53.333333333333336" x="400.00000000000006" y="320"></rect><rect width="66.66666666666667" height="53.333333333333336" x="466.66666666666674" y="320"></rect><rect width="66.66666666666667" height="53.333333333333336" x="533.3333333333334" y="320"></rect><rect width="66.66666666666667" height="53.333333333333336" x="600" y="320"></rect><rect width="66.66666666666667" height="53.333333333333336" x="666.6666666666666" y="320"></rect><rect width="66.66666666666667" height="53.333333333333336" x="733.3333333333333" y="320"></rect><rect width="66.66666666666667" height="53.333333333333336" x="799.9999999999999" y="320"></rect><rect width="66.66666666666667" height="53.333333333333336" x="0" y="373.3333333333333"></rect><rect width="66.66666666666667" height="53.333333333333336" x="66.66666666666667" y="373.3333333333333"></rect><rect width="66.66666666666667" height="53.333333333333336" x="133.33333333333334" y="373.3333333333333"></rect><rect width="66.66666666666667" height="53.333333333333336" x="200" y="373.3333333333333"></rect><rect width="66.66666666666667" height="53.333333333333336" x="266.6666666666667" y="373.3333333333333"></rect><rect width="66.66666666666667" height="53.333333333333336" x="333.33333333333337" y="373.3333333333333"></rect><rect width="66.66666666666667" height="53.333333333333336" x="400.00000000000006" y="373.3333333333333"></rect><rect width="66.66666666666667" height="53.333333333333336" x="466.66666666666674" y="373.3333333333333"></rect><rect width="66.66666666666667" height="53.333333333333336" x="533.3333333333334" y="373.3333333333333"></rect><rect width="66.66666666666667" height="53.333333333333336" x="600" y="373.3333333333333"></rect><rect width="66.66666666666667" height="53.333333333333336" x="666.6666666666666" y="373.3333333333333"></rect><rect width="66.66666666666667" height="53.333333333333336" x="733.3333333333333" y="373.3333333333333"></rect><rect width="66.66666666666667" height="53.333333333333336" x="799.9999999999999" y="373.3333333333333"></rect><rect width="66.66666666666667" height="53.333333333333336" x="0" y="426.66666666666663"></rect><rect width="66.66666666666667" height="53.333333333333336" x="66.66666666666667" y="426.66666666666663"></rect><rect width="66.66666666666667" height="53.333333333333336" x="133.33333333333334" y="426.66666666666663"></rect><rect width="66.66666666666667" height="53.333333333333336" x="200" y="426.66666666666663"></rect><rect width="66.66666666666667" height="53.333333333333336" x="266.6666666666667" y="426.66666666666663"></rect><rect width="66.66666666666667" height="53.333333333333336" x="333.33333333333337" y="426.66666666666663"></rect><rect width="66.66666666666667" height="53.333333333333336" x="400.00000000000006" y="426.66666666666663"></rect><rect width="66.66666666666667" height="53.333333333333336" x="466.66666666666674" y="426.66666666666663"></rect><rect width="66.66666666666667" height="53.333333333333336" x="533.3333333333334" y="426.66666666666663"></rect><rect width="66.66666666666667" height="53.333333333333336" x="600" y="426.66666666666663"></rect><rect width="66.66666666666667" height="53.333333333333336" x="666.6666666666666" y="426.66666666666663"></rect><rect width="66.66666666666667" height="53.333333333333336" x="733.3333333333333" y="426.66666666666663"></rect><rect width="66.66666666666667" height="53.333333333333336" x="799.9999999999999" y="426.66666666666663"></rect><rect width="66.66666666666667" height="53.333333333333336" x="0" y="479.99999999999994"></rect><rect width="66.66666666666667" height="53.333333333333336" x="66.66666666666667" y="479.99999999999994"></rect><rect width="66.66666666666667" height="53.333333333333336" x="133.33333333333334" y="479.99999999999994"></rect><rect width="66.66666666666667" height="53.333333333333336" x="200" y="479.99999999999994"></rect><rect width="66.66666666666667" height="53.333333333333336" x="266.6666666666667" y="479.99999999999994"></rect><rect width="66.66666666666667" height="53.333333333333336" x="333.33333333333337" y="479.99999999999994"></rect><rect width="66.66666666666667" height="53.333333333333336" x="400.00000000000006" y="479.99999999999994"></rect><rect width="66.66666666666667" height="53.333333333333336" x="466.66666666666674" y="479.99999999999994"></rect><rect width="66.66666666666667" height="53.333333333333336" x="533.3333333333334" y="479.99999999999994"></rect><rect width="66.66666666666667" height="53.333333333333336" x="600" y="479.99999999999994"></rect><rect width="66.66666666666667" height="53.333333333333336" x="666.6666666666666" y="479.99999999999994"></rect><rect width="66.66666666666667" height="53.333333333333336" x="733.3333333333333" y="479.99999999999994"></rect><rect width="66.66666666666667" height="53.333333333333336" x="799.9999999999999" y="479.99999999999994"></rect><rect width="66.66666666666667" height="53.333333333333336" x="0" y="533.3333333333333"></rect><rect width="66.66666666666667" height="53.333333333333336" x="66.66666666666667" y="533.3333333333333"></rect><rect width="66.66666666666667" height="53.333333333333336" x="133.33333333333334" y="533.3333333333333"></rect><rect width="66.66666666666667" height="53.333333333333336" x="200" y="533.3333333333333"></rect><rect width="66.66666666666667" height="53.333333333333336" x="266.6666666666667" y="533.3333333333333"></rect><rect width="66.66666666666667" height="53.333333333333336" x="333.33333333333337" y="533.3333333333333"></rect><rect width="66.66666666666667" height="53.333333333333336" x="400.00000000000006" y="533.3333333333333"></rect><rect width="66.66666666666667" height="53.333333333333336" x="466.66666666666674" y="533.3333333333333"></rect><rect width="66.66666666666667" height="53.333333333333336" x="533.3333333333334" y="533.3333333333333"></rect><rect width="66.66666666666667" height="53.333333333333336" x="600" y="533.3333333333333"></rect><rect width="66.66666666666667" height="53.333333333333336" x="666.6666666666666" y="533.3333333333333"></rect><rect width="66.66666666666667" height="53.333333333333336" x="733.3333333333333" y="533.3333333333333"></rect><rect width="66.66666666666667" height="53.333333333333336" x="799.9999999999999" y="533.3333333333333"></rect><rect width="66.66666666666667" height="53.333333333333336" x="0" y="586.6666666666666"></rect><rect width="66.66666666666667" height="53.333333333333336" x="66.66666666666667" y="586.6666666666666"></rect><rect width="66.66666666666667" height="53.333333333333336" x="133.33333333333334" y="586.6666666666666"></rect><rect width="66.66666666666667" height="53.333333333333336" x="200" y="586.6666666666666"></rect><rect width="66.66666666666667" height="53.333333333333336" x="266.6666666666667" y="586.6666666666666"></rect><rect width="66.66666666666667" height="53.333333333333336" x="333.33333333333337" y="586.6666666666666"></rect><rect width="66.66666666666667" height="53.333333333333336" x="400.00000000000006" y="586.6666666666666"></rect><rect width="66.66666666666667" height="53.333333333333336" x="466.66666666666674" y="586.6666666666666"></rect><rect width="66.66666666666667" height="53.333333333333336" x="533.3333333333334" y="586.6666666666666"></rect><rect width="66.66666666666667" height="53.333333333333336" x="600" y="586.6666666666666"></rect><rect width="66.66666666666667" height="53.333333333333336" x="666.6666666666666" y="586.6666666666666"></rect><rect width="66.66666666666667" height="53.333333333333336" x="733.3333333333333" y="586.6666666666666"></rect><rect width="66.66666666666667" height="53.333333333333336" x="799.9999999999999" y="586.6666666666666"></rect><rect width="66.66666666666667" height="53.333333333333336" x="0" y="640"></rect><rect width="66.66666666666667" height="53.333333333333336" x="66.66666666666667" y="640"></rect><rect width="66.66666666666667" height="53.333333333333336" x="133.33333333333334" y="640"></rect><rect width="66.66666666666667" height="53.333333333333336" x="200" y="640"></rect><rect width="66.66666666666667" height="53.333333333333336" x="266.6666666666667" y="640"></rect><rect width="66.66666666666667" height="53.333333333333336" x="333.33333333333337" y="640"></rect><rect width="66.66666666666667" height="53.333333333333336" x="400.00000000000006" y="640"></rect><rect width="66.66666666666667" height="53.333333333333336" x="466.66666666666674" y="640"></rect><rect width="66.66666666666667" height="53.333333333333336" x="533.3333333333334" y="640"></rect><rect width="66.66666666666667" height="53.333333333333336" x="600" y="640"></rect><rect width="66.66666666666667" height="53.333333333333336" x="666.6666666666666" y="640"></rect><rect width="66.66666666666667" height="53.333333333333336" x="733.3333333333333" y="640"></rect><rect width="66.66666666666667" height="53.333333333333336" x="799.9999999999999" y="640"></rect><rect width="66.66666666666667" height="53.333333333333336" x="0" y="693.3333333333334"></rect><rect width="66.66666666666667" height="53.333333333333336" x="66.66666666666667" y="693.3333333333334"></rect><rect width="66.66666666666667" height="53.333333333333336" x="133.33333333333334" y="693.3333333333334"></rect><rect width="66.66666666666667" height="53.333333333333336" x="200" y="693.3333333333334"></rect><rect width="66.66666666666667" height="53.333333333333336" x="266.6666666666667" y="693.3333333333334"></rect><rect width="66.66666666666667" height="53.333333333333336" x="333.33333333333337" y="693.3333333333334"></rect><rect width="66.66666666666667" height="53.333333333333336" x="400.00000000000006" y="693.3333333333334"></rect><rect width="66.66666666666667" height="53.333333333333336" x="466.66666666666674" y="693.3333333333334"></rect><rect width="66.66666666666667" height="53.333333333333336" x="533.3333333333334" y="693.3333333333334"></rect><rect width="66.66666666666667" height="53.333333333333336" x="600" y="693.3333333333334"></rect><rect width="66.66666666666667" height="53.333333333333336" x="666.6666666666666" y="693.3333333333334"></rect><rect width="66.66666666666667" height="53.333333333333336" x="733.3333333333333" y="693.3333333333334"></rect><rect width="66.66666666666667" height="53.333333333333336" x="799.9999999999999" y="693.3333333333334"></rect><rect width="66.66666666666667" height="53.333333333333336" x="0" y="746.6666666666667"></rect><rect width="66.66666666666667" height="53.333333333333336" x="66.66666666666667" y="746.6666666666667"></rect><rect width="66.66666666666667" height="53.333333333333336" x="133.33333333333334" y="746.6666666666667"></rect><rect width="66.66666666666667" height="53.333333333333336" x="200" y="746.6666666666667"></rect><rect width="66.66666666666667" height="53.333333333333336" x="266.6666666666667" y="746.6666666666667"></rect><rect width="66.66666666666667" height="53.333333333333336" x="333.33333333333337" y="746.6666666666667"></rect><rect width="66.66666666666667" height="53.333333333333336" x="400.00000000000006" y="746.6666666666667"></rect><rect width="66.66666666666667" height="53.333333333333336" x="466.66666666666674" y="746.6666666666667"></rect><rect width="66.66666666666667" height="53.333333333333336" x="533.3333333333334" y="746.6666666666667"></rect><rect width="66.66666666666667" height="53.333333333333336" x="600" y="746.6666666666667"></rect><rect width="66.66666666666667" height="53.333333333333336" x="666.6666666666666" y="746.6666666666667"></rect><rect width="66.66666666666667" height="53.333333333333336" x="733.3333333333333" y="746.6666666666667"></rect><rect width="66.66666666666667" height="53.333333333333336" x="799.9999999999999" y="746.6666666666667"></rect><rect width="66.66666666666667" height="53.333333333333336" x="0" y="800.0000000000001"></rect><rect width="66.66666666666667" height="53.333333333333336" x="66.66666666666667" y="800.0000000000001"></rect><rect width="66.66666666666667" height="53.333333333333336" x="133.33333333333334" y="800.0000000000001"></rect><rect width="66.66666666666667" height="53.333333333333336" x="200" y="800.0000000000001"></rect><rect width="66.66666666666667" height="53.333333333333336" x="266.6666666666667" y="800.0000000000001"></rect><rect width="66.66666666666667" height="53.333333333333336" x="333.33333333333337" y="800.0000000000001"></rect><rect width="66.66666666666667" height="53.333333333333336" x="400.00000000000006" y="800.0000000000001"></rect><rect width="66.66666666666667" height="53.333333333333336" x="466.66666666666674" y="800.0000000000001"></rect><rect width="66.66666666666667" height="53.333333333333336" x="533.3333333333334" y="800.0000000000001"></rect><rect width="66.66666666666667" height="53.333333333333336" x="600" y="800.0000000000001"></rect><rect width="66.66666666666667" height="53.333333333333336" x="666.6666666666666" y="800.0000000000001"></rect><rect width="66.66666666666667" height="53.333333333333336" x="733.3333333333333" y="800.0000000000001"></rect><rect width="66.66666666666667" height="53.333333333333336" x="799.9999999999999" y="800.0000000000001"></rect></g></svg>