<svg fill="none" height="25" viewBox="0 0 29 25" width="29" xmlns="http://www.w3.org/2000/svg"><g clip-rule="evenodd" fill-rule="evenodd"><path d="m10.8477 21.1931c.693 1.19 1.969 2 3.445 2 1.477 0 2.752-.81 3.446-2z" fill="#6d6d6d"/><path d="m23.3477 20.1931h-18.50004v-2.4431l.703-.228c1.42347-.462 2.38033-2.0309 2.38033-3.4909v-2.838c0-3.30903 2.76571-6.00003 6.16671-6.00003v2c-2.2673 0-4.11115 1.794-4.11115 4.00003v2.838c0 1.648-.7657 3.16-2.01959 4.162h12.26144c-1.2539-1.002-2.0196-2.514-2.0196-4.162v-1.838h2.0555v1.838c0 1.46.9569 3.0289 2.3804 3.4909l.703.228z" fill="#6d6d6d"/><path d="m26.1872 4.55227c.1953-.19521.1953-.5117.0002-.70698l-1.4477-1.44872c-.1953-.19538-.512-.19543-.7073-.00012l-4.0076 4.00765-1.9759-1.97588c-.1953-.19531-.512-.19525-.7072.00013l-1.4477 1.44872c-.1952.19528-.1951.51177.0001.70698l3.7771 3.77715c.1953.1952.5119.1952.7071 0z" fill="#ff3f07" opacity=".9"/></g></svg>