<svg fill="none" height="25" viewBox="0 0 29 25" width="29" xmlns="http://www.w3.org/2000/svg" xmlns:xlink="http://www.w3.org/1999/xlink"><clipPath id="a"><path d="m.125.75h28v24h-28z"/></clipPath><g clip-path="url(#a)" clip-rule="evenodd" fill-rule="evenodd"><path d="m5.125 8.75h17.999v9l-.001-.002-.001 3.002h-17.997zm3-4v2h-3v-2zm2 2h3v-2h-3zm12.999 0h-7.999v-2h8zm-17.999-4c-1.103 0-2 .897-2 2v16c0 1.103.897 2 2 2h18c1.103 0 2-.897 2-2v-16c0-1.103-.897-2-2-2z" fill="#6d6d6d"/><path d="m28.0042 11.4414c.2974.637.0268 1.3967-.6043 1.6968l-6.096 3.3746c-.4292.2041-.9355.1483-1.3109-.1445l-3.4311-2.6757-3.4633 3.6268c-.4656.4876-1.2276.5228-1.7353.0802l-1.97232-1.7192-1.39848 1.5982c-.2398.2741-.58463.4311-.9469.4311h-5.65733c-.697685 0-1.26327-.5709-1.26327-1.275s.565585-1.2749 1.26327-1.2749h5.08758l1.84838-2.1124c.45824-.5237 1.24873-.5776 1.77267-.1209l2.0125 1.7543 3.4192-3.5806c.4472-.4684 1.1721-.5218 1.682-.1241l3.7156 2.8976 5.3968-3.0421c.6311-.3001 1.3838-.0271 1.6812.6098z" fill="#ff3f07"/></g></svg>