<svg fill="none" height="25" viewBox="0 0 29 25" width="29" xmlns="http://www.w3.org/2000/svg" xmlns:xlink="http://www.w3.org/1999/xlink"><clipPath id="a"><path d="m.125.75h28v24h-28z"/></clipPath><g clip-path="url(#a)"><path clip-rule="evenodd" d="m19.125 16.75v2h-7.333l-2.667 2v-2h-3v-9h6v-2h-6c-1.103 0-2 .897-2 2v9c0 1.102.897 2 2 2h1v4l5.333-4h6.667c1.103 0 2-.898 2-2v-2z" fill="#6d6d6d" fill-rule="evenodd"/><g fill="#ff3f07"><path clip-rule="evenodd" d="m21.125.75c-3.8601 0-7 3.1399-7 7s3.1399 7 7 7 7-3.1399 7-7-3.1399-7-7-7zm-4.7895 7c0-2.64081 2.1487-4.78947 4.7895-4.78947s4.7895 2.14866 4.7895 4.78947c0 2.6408-2.1487 4.7895-4.7895 4.7895s-4.7895-2.1487-4.7895-4.7895z" fill-rule="evenodd"/><path d="m22.1075 7.75h-1.965v3.9298h1.965z"/><path d="m21.125 4.55702c-.678 0-1.2281.55011-1.2281 1.22807 0 .67911.5503 1.22807 1.2281 1.22807s1.2281-.54896 1.2281-1.22807c0-.67796-.5501-1.22807-1.2281-1.22807z"/></g></g></svg>